<?xml version="1.0" encoding="UTF-8"?><svg xmlns="http://www.w3.org/2000/svg" xmlns:xlink="http://www.w3.org/1999/xlink" viewBox="0 0 1401.91 1401.91"><defs><style>.cls-1{fill:url(#radial-gradient-11);}.cls-1,.cls-2,.cls-3,.cls-4,.cls-5,.cls-6,.cls-7,.cls-8,.cls-9,.cls-10,.cls-11,.cls-12,.cls-13,.cls-14{mix-blend-mode:multiply;}.cls-15{filter:url(#luminosity-noclip-11);}.cls-16{mask:url(#mask-23);}.cls-17{mask:url(#mask-27);}.cls-18{mask:url(#mask-10);}.cls-2{fill:url(#radial-gradient-6);}.cls-19{fill:url(#radial-gradient-16);}.cls-19,.cls-20,.cls-21,.cls-22,.cls-23,.cls-24,.cls-25,.cls-26{mix-blend-mode:screen;}.cls-20,.cls-27{opacity:.42;}.cls-28{mask:url(#mask-26);}.cls-3{fill:url(#radial-gradient-18);}.cls-29{filter:url(#luminosity-noclip-13);}.cls-30{mask:url(#mask-17);}.cls-31{fill:url(#radial-gradient-22);opacity:.21;}.cls-32{mask:url(#mask-2);}.cls-33{mask:url(#mask-33);}.cls-34{isolation:isolate;}.cls-35{mask:url(#mask-13);}.cls-21{fill:url(#radial-gradient-8);}.cls-36{mask:url(#mask-3);}.cls-22{fill:url(#radial-gradient-20);}.cls-37{mask:url(#mask-31);}.cls-4{fill:url(#radial-gradient-9);}.cls-38{mask:url(#mask-30);}.cls-5{fill:url(#radial-gradient-5);}.cls-6{fill:url(#radial-gradient);}.cls-39{fill:url(#radial-gradient-23);}.cls-39,.cls-26{opacity:.5;}.cls-40{mask:url(#mask-32);}.cls-41{mask:url(#mask-9);}.cls-7{fill:url(#radial-gradient-19);}.cls-42{mask:url(#mask-12);}.cls-43{mask:url(#mask-5);}.cls-44{fill:url(#radial-gradient-24);opacity:.4;}.cls-44,.cls-45{mix-blend-mode:color-dodge;}.cls-46{filter:url(#luminosity-noclip-21);}.cls-47{mask:url(#mask-20);}.cls-48{filter:url(#luminosity-noclip-16);}.cls-49{mask:url(#mask-25);}.cls-50{filter:url(#luminosity-noclip-8);}.cls-51{mask:url(#mask-8);}.cls-52{filter:url(#luminosity-noclip-6);}.cls-53{filter:url(#luminosity-noclip-18);}.cls-54{mask:url(#mask-4);}.cls-23{fill:url(#radial-gradient-12);}.cls-55{mask:url(#mask-24);}.cls-56{mask:url(#mask-19);}.cls-57{mask:url(#mask-15);}.cls-58{opacity:.53;}.cls-59{filter:url(#luminosity-noclip-26);}.cls-8{fill:url(#radial-gradient-15);}.cls-60{mask:url(#mask-6);}.cls-61{mask:url(#mask-16);}.cls-24{fill:url(#radial-gradient-2);}.cls-25{fill:url(#radial-gradient-4);}.cls-62{mask:url(#mask-18);}.cls-9{fill:url(#radial-gradient-14);}.cls-63{mask:url(#mask-1);}.cls-64{mask:url(#mask);}.cls-65{filter:url(#luminosity-noclip-23);}.cls-66{mask:url(#mask-22);}.cls-10{fill:url(#radial-gradient-17);}.cls-67{mask:url(#mask-29);}.cls-11{fill:url(#radial-gradient-13);}.cls-68{mask:url(#mask-7);}.cls-69{filter:url(#luminosity-noclip-28);}.cls-12{fill:url(#radial-gradient-10);}.cls-13{fill:url(#radial-gradient-3);}.cls-70{mask:url(#mask-14);}.cls-14{fill:url(#radial-gradient-7);}.cls-71{mask:url(#mask-21);}.cls-72{mask:url(#mask-11);}.cls-73{mask:url(#mask-28);}.cls-26{fill:url(#radial-gradient-21);}.cls-74{filter:url(#luminosity-noclip-3);}</style><filter id="luminosity-noclip-2" y="-8784.88" width="1401.91" height="32766" color-interpolation-filters="sRGB" filterUnits="userSpaceOnUse"><feFlood flood-color="#fff" result="bg"/><feBlend in="SourceGraphic" in2="bg"/></filter><mask id="mask-1" y="-8784.88" width="1401.91" height="32766" maskUnits="userSpaceOnUse"/><radialGradient id="radial-gradient" cx="5762.84" cy="700.95" fx="5762.84" fy="700.95" r="700.95" gradientTransform="translate(5271.55 4280.25) rotate(-135) scale(1 -1)" gradientUnits="userSpaceOnUse"><stop offset="0" stopColor="#fff"/><stop offset=".17" stopColor="#ccc"/><stop offset=".47" stopColor="#757575"/><stop offset=".72" stopColor="#363636"/><stop offset=".91" stopColor="#0e0e0e"/><stop offset="1" stopColor="#000"/></radialGradient><mask id="mask" width="1401.91" height="1401.91" maskUnits="userSpaceOnUse"><g class="cls-63"><circle class="cls-6" cx="700.95" cy="700.95" r="700.95" transform="translate(-290.35 700.95) rotate(-45)"/></g></mask><filter id="luminosity-noclip-3" width="1401.91" height="1401.91" color-interpolation-filters="sRGB" filterUnits="userSpaceOnUse"><feFlood flood-color="#fff" result="bg"/><feBlend in="SourceGraphic" in2="bg"/></filter><filter id="luminosity-noclip-4" y="-8784.88" width="1401.91" height="32766" color-interpolation-filters="sRGB" filterUnits="userSpaceOnUse"><feFlood flood-color="#fff" result="bg"/><feBlend in="SourceGraphic" in2="bg"/></filter><mask id="mask-3" y="-8784.88" width="1401.91" height="32766" maskUnits="userSpaceOnUse"/><mask id="mask-2" width="1401.91" height="1401.91" maskUnits="userSpaceOnUse"><g class="cls-74"><g class="cls-36"><circle class="cls-6" cx="700.95" cy="700.95" r="700.95" transform="translate(-290.35 700.95) rotate(-45)"/></g></g></mask><radialGradient id="radial-gradient-2" cx="5762.84" cy="700.95" fx="5762.84" fy="700.95" r="700.95" gradientTransform="translate(5271.55 4280.25) rotate(-135) scale(1 -1)" gradientUnits="userSpaceOnUse"><stop offset="0" stopColor="#f5ff71"/><stop offset=".17" stopColor="#c4cc5a"/><stop offset=".47" stopColor="#717534"/><stop offset=".72" stopColor="#343618"/><stop offset=".91" stopColor="#0e0e06"/><stop offset="1" stopColor="#000"/></radialGradient><filter id="luminosity-noclip-5" x="248.09" y="-8784.88" width="922" height="32766" color-interpolation-filters="sRGB" filterUnits="userSpaceOnUse"><feFlood flood-color="#fff" result="bg"/><feBlend in="SourceGraphic" in2="bg"/></filter><mask id="mask-5" x="248.09" y="-8784.88" width="922" height="32766" maskUnits="userSpaceOnUse"/><radialGradient id="radial-gradient-3" cx="5754.71" cy="703.83" fx="5754.71" fy="703.83" r="461" gradientTransform="translate(6463.8) rotate(-180) scale(1 -1)" gradientUnits="userSpaceOnUse"><stop offset="0" stopColor="#fff"/><stop offset="1" stopColor="#000"/></radialGradient><mask id="mask-4" x="248.09" y="242.83" width="922" height="922" maskUnits="userSpaceOnUse"><g class="cls-43"><path class="cls-13" d="M248.09,703.83c0,254.61,206.4,461,461,461s461-206.38,461-461-206.39-461.01-461-461.01S248.09,449.23,248.09,703.83Z"/></g></mask><filter id="luminosity-noclip-6" x="248.09" y="242.83" width="922" height="922" color-interpolation-filters="sRGB" filterUnits="userSpaceOnUse"><feFlood flood-color="#fff" result="bg"/><feBlend in="SourceGraphic" in2="bg"/></filter><filter id="luminosity-noclip-7" x="248.09" y="-8784.88" width="922" height="32766" color-interpolation-filters="sRGB" filterUnits="userSpaceOnUse"><feFlood flood-color="#fff" result="bg"/><feBlend in="SourceGraphic" in2="bg"/></filter><mask id="mask-7" x="248.09" y="-8784.88" width="922" height="32766" maskUnits="userSpaceOnUse"/><mask id="mask-6" x="248.09" y="242.83" width="922" height="922" maskUnits="userSpaceOnUse"><g class="cls-52"><g class="cls-68"><path class="cls-13" d="M248.09,703.83c0,254.61,206.4,461,461,461s461-206.38,461-461-206.39-461.01-461-461.01S248.09,449.23,248.09,703.83Z"/></g></g></mask><filter id="luminosity-noclip-8" x="248.09" y="242.83" width="922" height="922" color-interpolation-filters="sRGB" filterUnits="userSpaceOnUse"><feFlood flood-color="#fff" result="bg"/><feBlend in="SourceGraphic" in2="bg"/></filter><filter id="luminosity-noclip-9" x="248.09" y="-8784.88" width="922" height="32766" color-interpolation-filters="sRGB" filterUnits="userSpaceOnUse"><feFlood flood-color="#fff" result="bg"/><feBlend in="SourceGraphic" in2="bg"/></filter><mask id="mask-9" x="248.09" y="-8784.88" width="922" height="32766" maskUnits="userSpaceOnUse"/><mask id="mask-8" x="248.09" y="242.83" width="922" height="922" maskUnits="userSpaceOnUse"><g class="cls-50"><g class="cls-41"><path class="cls-13" d="M248.09,703.83c0,254.61,206.4,461,461,461s461-206.38,461-461-206.39-461.01-461-461.01S248.09,449.23,248.09,703.83Z"/></g></g></mask><radialGradient id="radial-gradient-4" cx="5754.71" cy="703.83" fx="5754.71" fy="703.83" r="461" gradientTransform="translate(6463.8) rotate(-180) scale(1 -1)" gradientUnits="userSpaceOnUse"><stop offset="0" stopColor="#fff200"/><stop offset="1" stopColor="#000"/></radialGradient><filter id="luminosity-noclip-10" x="543.13" y="-8784.88" width="331.92" height="32766" color-interpolation-filters="sRGB" filterUnits="userSpaceOnUse"><feFlood flood-color="#fff" result="bg"/><feBlend in="SourceGraphic" in2="bg"/></filter><mask id="mask-11" x="543.13" y="-8784.88" width="331.92" height="32766" maskUnits="userSpaceOnUse"/><radialGradient id="radial-gradient-5" cx="8344.68" cy="2902.75" fx="8344.68" fy="2902.75" r="267.47" gradientTransform="translate(5886.96 -4315.89) rotate(-180) scale(.62 -1.73)" xlink:href="#radial-gradient-3"/><mask id="mask-10" x="543.13" y="241.29" width="331.92" height="925.08" maskUnits="userSpaceOnUse"><g class="cls-72"><path class="cls-5" d="M543.13,703.83c0,255.46,74.31,462.53,165.96,462.53s165.96-207.07,165.96-462.53-74.3-462.55-165.96-462.55-165.96,207.09-165.96,462.55Z"/></g></mask><filter id="luminosity-noclip-11" x="543.13" y="241.29" width="331.92" height="925.08" color-interpolation-filters="sRGB" filterUnits="userSpaceOnUse"><feFlood flood-color="#fff" result="bg"/><feBlend in="SourceGraphic" in2="bg"/></filter><filter id="luminosity-noclip-12" x="543.13" y="-8784.88" width="331.92" height="32766" color-interpolation-filters="sRGB" filterUnits="userSpaceOnUse"><feFlood flood-color="#fff" result="bg"/><feBlend in="SourceGraphic" in2="bg"/></filter><mask id="mask-13" x="543.13" y="-8784.88" width="331.92" height="32766" maskUnits="userSpaceOnUse"/><radialGradient id="radial-gradient-6" cx="8344.68" cy="2902.75" fx="8344.68" fy="2902.75" r="267.47" gradientTransform="translate(5886.96 -4315.89) rotate(-180) scale(.62 -1.73)" xlink:href="#radial-gradient-3"/><mask id="mask-12" x="543.13" y="241.29" width="331.92" height="925.08" maskUnits="userSpaceOnUse"><g class="cls-15"><g class="cls-35"><path class="cls-2" d="M543.13,703.83c0,255.46,74.31,462.53,165.96,462.53s165.96-207.07,165.96-462.53-74.3-462.55-165.96-462.55-165.96,207.09-165.96,462.55Z"/></g></g></mask><filter id="luminosity-noclip-13" x="543.13" y="241.29" width="331.92" height="925.08" color-interpolation-filters="sRGB" filterUnits="userSpaceOnUse"><feFlood flood-color="#fff" result="bg"/><feBlend in="SourceGraphic" in2="bg"/></filter><filter id="luminosity-noclip-14" x="543.13" y="-8784.88" width="331.92" height="32766" color-interpolation-filters="sRGB" filterUnits="userSpaceOnUse"><feFlood flood-color="#fff" result="bg"/><feBlend in="SourceGraphic" in2="bg"/></filter><mask id="mask-15" x="543.13" y="-8784.88" width="331.92" height="32766" maskUnits="userSpaceOnUse"/><radialGradient id="radial-gradient-7" cx="8344.68" cy="2902.75" fx="8344.68" fy="2902.75" r="267.47" gradientTransform="translate(5886.96 -4315.89) rotate(-180) scale(.62 -1.73)" xlink:href="#radial-gradient-3"/><mask id="mask-14" x="543.13" y="241.29" width="331.92" height="925.08" maskUnits="userSpaceOnUse"><g class="cls-29"><g class="cls-57"><path class="cls-14" d="M543.13,703.83c0,255.46,74.31,462.53,165.96,462.53s165.96-207.07,165.96-462.53-74.3-462.55-165.96-462.55-165.96,207.09-165.96,462.55Z"/></g></g></mask><radialGradient id="radial-gradient-8" cx="8344.68" cy="2902.75" fx="8344.68" fy="2902.75" r="267.47" gradientTransform="translate(5886.96 -4315.89) rotate(-180) scale(.62 -1.73)" gradientUnits="userSpaceOnUse"><stop offset="0" stopColor="#fff200"/><stop offset="1" stopColor="#000"/></radialGradient><filter id="luminosity-noclip-15" x="246.55" y="-8784.88" width="925.09" height="32766" color-interpolation-filters="sRGB" filterUnits="userSpaceOnUse"><feFlood flood-color="#fff" result="bg"/><feBlend in="SourceGraphic" in2="bg"/></filter><mask id="mask-17" x="246.55" y="-8784.88" width="925.09" height="32766" maskUnits="userSpaceOnUse"/><radialGradient id="radial-gradient-9" cx="10008.7" cy="8496.07" fx="10008.7" fy="8496.07" r="267.47" gradientTransform="translate(15401.33 6914.23) rotate(-90) scale(.62 -1.73)" xlink:href="#radial-gradient-3"/><mask id="mask-16" x="246.55" y="537.87" width="925.09" height="331.92" maskUnits="userSpaceOnUse"><g class="cls-30"><path class="cls-4" d="M709.08,537.87c-255.46,0-462.54,74.3-462.54,165.96s207.08,165.95,462.54,165.95,462.55-74.29,462.55-165.95-207.1-165.96-462.55-165.96Z"/></g></mask><filter id="luminosity-noclip-16" x="246.55" y="537.87" width="925.09" height="331.92" color-interpolation-filters="sRGB" filterUnits="userSpaceOnUse"><feFlood flood-color="#fff" result="bg"/><feBlend in="SourceGraphic" in2="bg"/></filter><filter id="luminosity-noclip-17" x="246.55" y="-8784.88" width="925.09" height="32766" color-interpolation-filters="sRGB" filterUnits="userSpaceOnUse"><feFlood flood-color="#fff" result="bg"/><feBlend in="SourceGraphic" in2="bg"/></filter><mask id="mask-19" x="246.55" y="-8784.88" width="925.09" height="32766" maskUnits="userSpaceOnUse"/><radialGradient id="radial-gradient-10" cx="10008.7" cy="8496.07" fx="10008.7" fy="8496.07" r="267.47" gradientTransform="translate(15401.33 6914.23) rotate(-90) scale(.62 -1.73)" xlink:href="#radial-gradient-3"/><mask id="mask-18" x="246.55" y="537.87" width="925.09" height="331.92" maskUnits="userSpaceOnUse"><g class="cls-48"><g class="cls-56"><path class="cls-12" d="M709.08,537.87c-255.46,0-462.54,74.3-462.54,165.96s207.08,165.95,462.54,165.95,462.55-74.29,462.55-165.95-207.1-165.96-462.55-165.96Z"/></g></g></mask><filter id="luminosity-noclip-18" x="246.55" y="537.87" width="925.09" height="331.92" color-interpolation-filters="sRGB" filterUnits="userSpaceOnUse"><feFlood flood-color="#fff" result="bg"/><feBlend in="SourceGraphic" in2="bg"/></filter><filter id="luminosity-noclip-19" x="246.55" y="-8784.88" width="925.09" height="32766" color-interpolation-filters="sRGB" filterUnits="userSpaceOnUse"><feFlood flood-color="#fff" result="bg"/><feBlend in="SourceGraphic" in2="bg"/></filter><mask id="mask-21" x="246.55" y="-8784.88" width="925.09" height="32766" maskUnits="userSpaceOnUse"/><radialGradient id="radial-gradient-11" cx="10008.7" cy="8496.07" fx="10008.7" fy="8496.07" r="267.47" gradientTransform="translate(15401.33 6914.23) rotate(-90) scale(.62 -1.73)" xlink:href="#radial-gradient-3"/><mask id="mask-20" x="246.55" y="537.87" width="925.09" height="331.92" maskUnits="userSpaceOnUse"><g class="cls-53"><g class="cls-71"><path class="cls-1" d="M709.08,537.87c-255.46,0-462.54,74.3-462.54,165.96s207.08,165.95,462.54,165.95,462.55-74.29,462.55-165.95-207.1-165.96-462.55-165.96Z"/></g></g></mask><radialGradient id="radial-gradient-12" cx="10008.7" cy="8496.07" fx="10008.7" fy="8496.07" r="267.47" gradientTransform="translate(15401.33 6914.23) rotate(-90) scale(.62 -1.73)" xlink:href="#radial-gradient-8"/><filter id="luminosity-noclip-20" x="441.96" y="-8784.88" width="534.25" height="32766" color-interpolation-filters="sRGB" filterUnits="userSpaceOnUse"><feFlood flood-color="#fff" result="bg"/><feBlend in="SourceGraphic" in2="bg"/></filter><mask id="mask-23" x="441.96" y="-8784.88" width="534.25" height="32766" maskUnits="userSpaceOnUse"/><radialGradient id="radial-gradient-13" cx="3447.1" cy="9953.01" fx="3447.1" fy="9953.01" r="213.99" gradientTransform="translate(12017.17 13736.84) rotate(-45) scale(.35 -1.73)" xlink:href="#radial-gradient-3"/><mask id="mask-22" x="441.96" y="436.7" width="534.25" height="534.26" maskUnits="userSpaceOnUse"><g class="cls-16"><path class="cls-11" d="M762.63,650.28c-144.51-144.51-285.62-237.68-315.2-208.11-29.57,29.58,63.6,170.68,208.11,315.19,144.5,144.51,285.62,237.68,315.2,208.12,29.57-29.58-63.61-170.7-208.11-315.2Z"/></g></mask><filter id="luminosity-noclip-21" x="441.96" y="436.7" width="534.25" height="534.26" color-interpolation-filters="sRGB" filterUnits="userSpaceOnUse"><feFlood flood-color="#fff" result="bg"/><feBlend in="SourceGraphic" in2="bg"/></filter><filter id="luminosity-noclip-22" x="441.96" y="-8784.88" width="534.25" height="32766" color-interpolation-filters="sRGB" filterUnits="userSpaceOnUse"><feFlood flood-color="#fff" result="bg"/><feBlend in="SourceGraphic" in2="bg"/></filter><mask id="mask-25" x="441.96" y="-8784.88" width="534.25" height="32766" maskUnits="userSpaceOnUse"/><radialGradient id="radial-gradient-14" cx="3447.1" cy="9953.01" fx="3447.1" fy="9953.01" r="213.99" gradientTransform="translate(12017.17 13736.84) rotate(-45) scale(.35 -1.73)" xlink:href="#radial-gradient-3"/><mask id="mask-24" x="441.96" y="436.7" width="534.25" height="534.26" maskUnits="userSpaceOnUse"><g class="cls-46"><g class="cls-49"><path class="cls-9" d="M762.63,650.28c-144.51-144.51-285.62-237.68-315.2-208.11-29.57,29.58,63.6,170.68,208.11,315.19,144.5,144.51,285.62,237.68,315.2,208.12,29.57-29.58-63.61-170.7-208.11-315.2Z"/></g></g></mask><filter id="luminosity-noclip-23" x="441.96" y="436.7" width="534.25" height="534.26" color-interpolation-filters="sRGB" filterUnits="userSpaceOnUse"><feFlood flood-color="#fff" result="bg"/><feBlend in="SourceGraphic" in2="bg"/></filter><filter id="luminosity-noclip-24" x="441.96" y="-8784.88" width="534.25" height="32766" color-interpolation-filters="sRGB" filterUnits="userSpaceOnUse"><feFlood flood-color="#fff" result="bg"/><feBlend in="SourceGraphic" in2="bg"/></filter><mask id="mask-27" x="441.96" y="-8784.88" width="534.25" height="32766" maskUnits="userSpaceOnUse"/><radialGradient id="radial-gradient-15" cx="3447.1" cy="9953.01" fx="3447.1" fy="9953.01" r="213.99" gradientTransform="translate(12017.17 13736.84) rotate(-45) scale(.35 -1.73)" xlink:href="#radial-gradient-3"/><mask id="mask-26" x="441.96" y="436.7" width="534.25" height="534.26" maskUnits="userSpaceOnUse"><g class="cls-65"><g class="cls-17"><path class="cls-8" d="M762.63,650.28c-144.51-144.51-285.62-237.68-315.2-208.11-29.57,29.58,63.6,170.68,208.11,315.19,144.5,144.51,285.62,237.68,315.2,208.12,29.57-29.58-63.61-170.7-208.11-315.2Z"/></g></g></mask><radialGradient id="radial-gradient-16" cx="3447.1" cy="9953.01" fx="3447.1" fy="9953.01" r="213.99" gradientTransform="translate(12017.17 13736.84) rotate(-45) scale(.35 -1.73)" gradientUnits="userSpaceOnUse"><stop offset="0" stopColor="#fbb040"/><stop offset="1" stopColor="#000"/></radialGradient><filter id="luminosity-noclip-25" x="441.96" y="-8784.88" width="534.25" height="32766" color-interpolation-filters="sRGB" filterUnits="userSpaceOnUse"><feFlood flood-color="#fff" result="bg"/><feBlend in="SourceGraphic" in2="bg"/></filter><mask id="mask-29" x="441.96" y="-8784.88" width="534.25" height="32766" maskUnits="userSpaceOnUse"/><radialGradient id="radial-gradient-17" cx="-17945.9" cy="6420.14" fx="-17945.9" fy="6420.14" r="213.99" gradientTransform="translate(-2651.39 13044.44) rotate(45) scale(.35 -1.73)" xlink:href="#radial-gradient-3"/><mask id="mask-28" x="441.96" y="436.7" width="534.25" height="534.26" maskUnits="userSpaceOnUse"><g class="cls-67"><path class="cls-10" d="M762.64,757.37c144.51-144.51,237.68-285.62,208.11-315.19-29.57-29.58-170.68,63.6-315.2,208.11-144.5,144.51-237.68,285.63-208.11,315.2,29.57,29.56,170.7-63.61,315.2-208.12Z"/></g></mask><filter id="luminosity-noclip-26" x="441.96" y="436.7" width="534.25" height="534.26" color-interpolation-filters="sRGB" filterUnits="userSpaceOnUse"><feFlood flood-color="#fff" result="bg"/><feBlend in="SourceGraphic" in2="bg"/></filter><filter id="luminosity-noclip-27" x="441.96" y="-8784.88" width="534.25" height="32766" color-interpolation-filters="sRGB" filterUnits="userSpaceOnUse"><feFlood flood-color="#fff" result="bg"/><feBlend in="SourceGraphic" in2="bg"/></filter><mask id="mask-31" x="441.96" y="-8784.88" width="534.25" height="32766" maskUnits="userSpaceOnUse"/><radialGradient id="radial-gradient-18" cx="-17945.9" cy="6420.14" fx="-17945.9" fy="6420.14" r="213.99" gradientTransform="translate(-2651.39 13044.44) rotate(45) scale(.35 -1.73)" xlink:href="#radial-gradient-3"/><mask id="mask-30" x="441.96" y="436.7" width="534.25" height="534.26" maskUnits="userSpaceOnUse"><g class="cls-59"><g class="cls-37"><path class="cls-3" d="M762.64,757.37c144.51-144.51,237.68-285.62,208.11-315.19-29.57-29.58-170.68,63.6-315.2,208.11-144.5,144.51-237.68,285.63-208.11,315.2,29.57,29.56,170.7-63.61,315.2-208.12Z"/></g></g></mask><filter id="luminosity-noclip-28" x="441.96" y="436.7" width="534.25" height="534.26" color-interpolation-filters="sRGB" filterUnits="userSpaceOnUse"><feFlood flood-color="#fff" result="bg"/><feBlend in="SourceGraphic" in2="bg"/></filter><filter id="luminosity-noclip-29" x="441.96" y="-8784.88" width="534.25" height="32766" color-interpolation-filters="sRGB" filterUnits="userSpaceOnUse"><feFlood flood-color="#fff" result="bg"/><feBlend in="SourceGraphic" in2="bg"/></filter><mask id="mask-33" x="441.96" y="-8784.88" width="534.25" height="32766" maskUnits="userSpaceOnUse"/><radialGradient id="radial-gradient-19" cx="-17945.9" cy="6420.14" fx="-17945.9" fy="6420.14" r="213.99" gradientTransform="translate(-2651.39 13044.44) rotate(45) scale(.35 -1.73)" xlink:href="#radial-gradient-3"/><mask id="mask-32" x="441.96" y="436.7" width="534.25" height="534.26" maskUnits="userSpaceOnUse"><g class="cls-69"><g class="cls-33"><path class="cls-7" d="M762.64,757.37c144.51-144.51,237.68-285.62,208.11-315.19-29.57-29.58-170.68,63.6-315.2,208.11-144.5,144.51-237.68,285.63-208.11,315.2,29.57,29.56,170.7-63.61,315.2-208.12Z"/></g></g></mask><radialGradient id="radial-gradient-20" cx="-17945.9" cy="6420.14" fx="-17945.9" fy="6420.14" r="213.99" gradientTransform="translate(-2651.39 13044.44) rotate(45) scale(.35 -1.73)" xlink:href="#radial-gradient-8"/><radialGradient id="radial-gradient-21" cx="550.92" cy="5511.55" fx="550.92" fy="5511.55" r="70.71" gradientTransform="translate(1793.1 -5046.48) rotate(-178.39) scale(1.69 -1.05)" gradientUnits="userSpaceOnUse"><stop offset="0" stopColor="#fff200"/><stop offset=".03" stopColor="#eee200"/><stop offset=".14" stopColor="#b7ad00"/><stop offset=".26" stopColor="#867f00"/><stop offset=".37" stopColor="#5d5800"/><stop offset=".49" stopColor="#3b3800"/><stop offset=".61" stopColor="#211f00"/><stop offset=".73" stopColor="#0e0d00"/><stop offset=".86" stopColor="#030300"/><stop offset="1" stopColor="#000"/></radialGradient><radialGradient id="radial-gradient-22" cx="191.06" cy="513.33" fx="191.06" fy="513.33" r="70.72" gradientTransform="translate(922.31 142.88) rotate(-178.39) scale(1.09 -1.1)" gradientUnits="userSpaceOnUse"><stop offset="0" stopColor="#bcb1b1"/><stop offset=".13" stopColor="#9c9393"/><stop offset=".44" stopColor="#5a5454"/><stop offset=".7" stopColor="#292626"/><stop offset=".89" stopColor="#0b0a0a"/><stop offset="1" stopColor="#000"/></radialGradient><radialGradient id="radial-gradient-23" cx="6080.86" cy="554.6" fx="6080.86" fy="554.6" r="78.38" gradientTransform="translate(6792.53 320.5) rotate(-178.39) scale(1 -1)" gradientUnits="userSpaceOnUse"><stop offset="0" stopColor="#adaa86" stop-opacity=".6"/><stop offset="1" stopColor="#000"/></radialGradient><radialGradient id="radial-gradient-24" cx="326.07" cy="115044.57" fx="326.07" fy="115044.57" r="146.18" gradientTransform="translate(1432.27 -10627.84) rotate(-178.39) scale(1.26 -.1)" gradientUnits="userSpaceOnUse"><stop offset="0" stopColor="#fff200"/><stop offset="1" stopColor="#000"/></radialGradient></defs><g class="cls-34"><g id="_"><g><g><g class="cls-64"><g class="cls-32"><circle class="cls-24" cx="700.95" cy="700.95" r="700.95" transform="translate(-290.35 700.95) rotate(-45)"/></g></g><g><g class="cls-54"><g class="cls-27"><g class="cls-60"><g class="cls-51"><path class="cls-25" d="M248.09,703.83c0,254.61,206.4,461,461,461s461-206.38,461-461-206.39-461.01-461-461.01S248.09,449.23,248.09,703.83Z"/></g></g></g></g><g class="cls-18"><g class="cls-27"><g class="cls-42"><g class="cls-70"><path class="cls-21" d="M543.13,703.83c0,255.46,74.31,462.53,165.96,462.53s165.96-207.07,165.96-462.53-74.3-462.55-165.96-462.55-165.96,207.09-165.96,462.55Z"/></g></g></g></g><g class="cls-61"><g class="cls-20"><g class="cls-62"><g class="cls-47"><path class="cls-23" d="M709.08,537.87c-255.46,0-462.54,74.3-462.54,165.96s207.08,165.95,462.54,165.95,462.55-74.29,462.55-165.95-207.1-165.96-462.55-165.96Z"/></g></g></g></g><g class="cls-66"><g class="cls-27"><g class="cls-55"><g class="cls-28"><path class="cls-19" d="M762.63,650.28c-144.51-144.51-285.62-237.68-315.2-208.11-29.57,29.58,63.6,170.68,208.11,315.19,144.5,144.51,285.62,237.68,315.2,208.12,29.57-29.58-63.61-170.7-208.11-315.2Z"/></g></g></g></g><g class="cls-73"><g class="cls-20"><g class="cls-38"><g class="cls-40"><path class="cls-22" d="M762.64,757.37c144.51-144.51,237.68-285.62,208.11-315.19-29.57-29.58-170.68,63.6-315.2,208.11-144.5,144.51-237.68,285.63-208.11,315.2,29.57,29.56,170.7-63.61,315.2-208.12Z"/></g></g></g></g></g></g><g class="cls-58"><path class="cls-26" d="M578.84,700.65c-1.88,67.11,50.18,123.01,116.28,124.86,66.1,1.86,121.21-51.04,123.09-118.15,1.88-67.11-50.18-123.01-116.27-124.86-66.11-1.85-121.22,51.04-123.1,118.15Z"/><g class="cls-45"><path class="cls-31" d="M621.58,701.85c-1.21,43.14,32.26,79.07,74.76,80.26,42.49,1.19,77.93-32.81,79.14-75.95,1.21-43.14-32.26-79.08-74.76-80.28-42.5-1.19-77.93,32.82-79.14,75.96Z"/><path class="cls-39" d="M620.83,701.83c1.22-43.55,37.07-78.01,79.91-76.81,42.84,1.2,76.7,37.62,75.48,81.17-1.22,43.55-37.07,78.01-79.91,76.81-42.84-1.2-76.7-37.62-75.48-81.17Zm1.5,.04c-1.2,42.59,32.02,78.19,74.03,79.37,42.01,1.18,77.17-32.51,78.36-75.1,1.2-42.59-32.02-78.2-74.03-79.37-42.01-1.18-77.17,32.51-78.36,75.1Z"/></g><path class="cls-44" d="M442.04,696.81c-.88,31.15,113.25,59.63,254.9,63.61,141.64,3.97,257.18-18.07,258.06-49.22,.87-31.15-113.25-59.63-254.89-63.61-141.66-3.97-257.19,18.06-258.07,49.22Z"/></g></g></g></g></svg>